<?xml version="1.0" standalone="no"?>
<!DOCTYPE svg PUBLIC "-//W3C//DTD SVG 20010904//EN"
 "http://www.w3.org/TR/2001/REC-SVG-20010904/DTD/svg10.dtd">
<svg version="1.0" xmlns="http://www.w3.org/2000/svg"
 width="1024.000000pt" height="1024.000000pt" viewBox="0 0 1024.000000 1024.000000"
 preserveAspectRatio="xMidYMid meet">
<metadata>
Created by potrace 1.11, written by Peter Selinger 2001-2013
</metadata>
<g transform="translate(0.000000,1024.000000) scale(0.100000,-0.100000)"
fill="#000000" stroke="none">
<path d="M4740 9293 c-22 -12 -43 -35 -60 -68 -22 -43 -25 -62 -25 -145 0 -52
3 -118 8 -145 l7 -50 -62 -24 c-184 -70 -281 -177 -249 -274 23 -68 112 -139
236 -188 68 -27 70 -29 68 -61 -2 -18 -4 -82 -5 -143 -3 -100 -1 -114 22 -159
34 -69 68 -91 135 -90 67 0 176 52 252 119 l52 46 53 -43 c115 -93 225 -138
297 -118 52 14 95 64 111 130 12 51 9 196 -6 261 -5 24 -1 28 53 49 138 54
233 130 254 201 17 54 -8 116 -67 168 -44 38 -165 103 -217 117 -28 6 -28 7
-20 63 4 31 8 97 8 146 -1 108 -26 171 -81 206 -70 43 -187 10 -317 -90 l-68
-52 -67 51 c-129 97 -240 131 -312 93z m155 -77 c28 -13 78 -44 112 -70 l63
-47 -63 -79 c-51 -64 -68 -80 -97 -85 -19 -3 -65 -12 -102 -19 -79 -14 -74
-20 -84 114 -14 185 43 247 171 186z m574 14 c10 -5 24 -24 32 -42 15 -36 19
-166 6 -239 l-8 -45 -67 12 c-37 7 -83 16 -102 19 -29 5 -46 21 -97 85 l-63
79 53 42 c96 77 199 115 246 89z m-305 -235 l37 -45 -82 0 -82 0 19 23 c44 52
58 67 65 67 3 0 23 -20 43 -45z m52 -121 l51 -6 51 -87 c28 -47 58 -102 68
-123 l17 -36 -38 -69 c-21 -37 -53 -92 -71 -120 l-34 -53 -140 0 -140 0 -35
54 c-18 29 -51 84 -71 121 l-37 67 17 36 c10 21 40 76 69 124 47 81 53 87 86
91 64 7 155 7 207 1z m-336 -21 c-1 -5 -18 -37 -40 -73 l-39 -64 -15 35 c-8
19 -18 47 -21 61 -6 24 -4 26 42 36 63 13 73 13 73 5z m563 -8 c20 -4 37 -8
37 -10 0 -2 -23 -70 -36 -104 -3 -10 -19 9 -44 50 -46 75 -48 83 -17 76 12 -3
39 -9 60 -12z m-719 -125 l35 -95 -34 -90 c-39 -104 -39 -104 -142 -55 -104
48 -163 104 -163 154 0 21 54 81 97 107 31 20 165 79 170 75 1 0 17 -44 37
-96z m991 26 c48 -28 105 -89 105 -112 0 -50 -59 -106 -163 -154 -103 -49
-103 -49 -142 55 l-35 90 27 75 c15 41 30 85 34 97 l8 22 62 -24 c33 -13 80
-36 104 -49z m-251 -270 c9 -28 13 -53 9 -57 -5 -4 -32 -11 -61 -15 l-54 -7
39 71 c21 39 41 68 44 64 4 -4 14 -29 23 -56z m-618 -14 c35 -61 35 -62 12
-62 -44 0 -100 21 -95 35 3 7 11 32 18 54 7 23 16 40 21 39 5 -2 25 -31 44
-66z m9 -134 c80 -11 87 -14 113 -48 14 -19 44 -54 65 -77 l39 -42 -29 -26
c-53 -47 -129 -93 -182 -111 -48 -15 -57 -16 -80 -3 -34 19 -52 58 -58 128 -7
78 14 204 33 197 8 -3 53 -11 99 -18z m649 -3 c13 -51 18 -145 12 -199 -14
-108 -68 -134 -178 -84 -57 27 -158 102 -158 118 0 6 27 43 61 83 l61 72 91
16 c51 9 95 17 98 18 4 0 10 -10 13 -24z m-304 -22 c-1 -5 -18 -27 -39 -50
l-39 -43 -41 45 c-22 24 -41 47 -41 50 0 3 36 5 80 5 44 0 80 -3 80 -7z"/>
<path d="M5055 8751 c-52 -31 -68 -58 -72 -114 -7 -89 49 -151 136 -151 152 0
195 199 59 270 -37 19 -87 17 -123 -5z"/>
<path d="M7090 7804 l0 -196 -35 22 c-19 12 -43 20 -52 18 -10 -2 -73 -34
-140 -73 l-123 -70 0 -157 0 -157 28 -19 c45 -31 227 -132 239 -132 16 0 256
139 265 153 9 14 11 688 2 711 -7 18 -143 96 -168 96 -14 0 -16 -22 -16 -196z
m-40 -384 c39 -20 40 -22 40 -73 0 -52 -1 -54 -42 -77 l-41 -23 -44 23 c-42
23 -43 23 -43 76 0 52 1 54 38 73 46 25 45 25 92 1z"/>
<path d="M5428 7583 l-128 -75 0 -198 c0 -111 4 -201 9 -205 5 -3 46 16 90 42
l81 47 0 97 c0 106 4 115 61 145 28 14 33 13 72 -8 l42 -23 5 -105 5 -105 79
-48 c44 -26 84 -43 88 -39 5 5 7 97 6 206 l-3 198 -127 74 c-70 41 -133 74
-140 73 -7 -1 -70 -35 -140 -76z"/>
<path d="M6168 7591 c-64 -37 -124 -74 -133 -81 -12 -10 -15 -39 -15 -161 l0
-148 28 -19 c56 -40 224 -132 240 -132 15 0 190 94 245 132 l27 19 0 149 0
149 -27 19 c-30 20 -240 142 -245 142 -2 0 -56 -31 -120 -69z"/>
<path d="M7599 7592 c-64 -37 -124 -74 -133 -81 -13 -11 -16 -37 -16 -161 0
-127 2 -149 18 -162 29 -27 233 -138 251 -138 21 0 144 65 160 84 14 17 25 9
-129 97 l-115 66 -3 50 c-3 50 -3 51 42 77 l45 26 38 -22 c48 -28 53 -35 53
-80 0 -21 5 -38 10 -38 6 0 47 21 90 46 l80 46 0 47 c0 33 -5 52 -17 63 -19
15 -247 148 -254 147 -2 0 -56 -30 -120 -67z"/>
<path d="M8305 7594 c-60 -36 -118 -74 -127 -85 -15 -18 -18 -42 -18 -158 0
-94 4 -142 13 -153 16 -22 105 -68 129 -68 10 0 30 11 44 25 24 24 25 27 22
167 -3 135 -4 143 -23 143 -19 0 -20 -8 -23 -142 -3 -160 -3 -161 -77 -126
l-35 17 0 137 0 137 113 66 114 66 117 -66 117 -67 -3 -136 -3 -136 -113 -64
-113 -64 -32 17 c-24 13 -39 15 -57 8 -24 -9 -23 -10 29 -40 30 -17 61 -28 70
-24 31 11 239 133 250 146 8 9 11 64 9 167 l-3 154 -125 72 c-69 40 -134 72
-145 72 -11 0 -69 -30 -130 -65z"/>
<path d="M8461 7470 c-94 -22 -86 -120 12 -135 94 -14 98 -16 95 -38 -3 -19
-10 -22 -58 -25 -50 -3 -57 -1 -77 25 -17 20 -25 25 -34 16 -35 -35 27 -87
105 -87 67 -1 109 26 114 70 4 42 -21 61 -102 78 -75 15 -81 19 -73 41 5 11
21 15 56 15 40 0 52 -4 61 -20 13 -24 50 -27 50 -5 0 22 -45 65 -69 65 -11 0
-25 2 -33 4 -7 2 -28 0 -47 -4z"/>
<path d="M7692 7394 c-31 -22 -30 -69 3 -90 23 -15 27 -15 50 0 33 21 34 68 3
90 -12 9 -25 16 -28 16 -3 0 -16 -7 -28 -16z"/>
<path d="M3720 6605 l0 -285 185 0 185 0 0 35 0 35 -145 0 -145 0 0 100 0 100
135 0 135 0 0 35 0 35 -135 0 -135 0 0 80 0 79 143 3 142 3 3 33 3 32 -185 0
-186 0 0 -285z"/>
<path d="M4820 6749 c-14 -5 -35 -20 -47 -31 l-23 -21 0 26 c0 25 -3 27 -40
27 l-40 0 0 -300 0 -300 40 0 40 0 0 112 c0 91 2 109 13 96 27 -33 62 -48 115
-48 117 0 182 82 182 230 0 79 -34 157 -82 192 -35 25 -119 34 -158 17z m109
-75 c33 -24 51 -74 51 -143 0 -77 -22 -125 -68 -147 -62 -29 -125 0 -151 69
-26 69 0 199 46 226 27 16 96 13 122 -5z"/>
<path d="M5320 6749 c-14 -6 -35 -20 -47 -31 l-23 -21 0 26 c0 25 -3 27 -40
27 l-40 0 0 -215 0 -215 40 0 40 0 0 135 c0 196 25 241 130 233 l50 -3 0 38 0
37 -42 -1 c-24 0 -54 -5 -68 -10z"/>
<path d="M5575 6741 c-157 -71 -167 -327 -15 -409 40 -21 54 -23 135 -19 115
5 145 18 145 65 0 29 -3 33 -17 27 -93 -40 -190 -41 -239 -3 -24 20 -54 73
-54 98 0 6 57 10 160 10 l160 0 0 53 c-1 86 -46 161 -113 186 -43 16 -117 13
-162 -8z m154 -67 c21 -15 51 -70 51 -94 0 -6 -46 -10 -125 -10 -69 0 -125 2
-125 5 0 21 32 75 55 93 34 27 109 30 144 6z"/>
<path d="M6023 6749 c-49 -14 -83 -62 -83 -116 0 -65 41 -104 135 -127 85 -21
115 -39 115 -70 0 -70 -107 -83 -245 -29 -14 5 -16 -1 -13 -33 3 -35 6 -39 43
-50 66 -20 172 -17 221 6 89 44 97 166 13 210 -9 5 -51 19 -95 30 -43 12 -84
26 -91 32 -19 16 -16 45 8 69 19 19 29 21 98 16 42 -3 86 -9 99 -13 22 -6 23
-4 20 27 -2 29 -8 36 -38 46 -41 14 -142 15 -187 2z"/>
<path d="M6433 6749 c-49 -14 -83 -62 -83 -116 0 -65 41 -104 135 -127 85 -21
115 -39 115 -70 0 -70 -107 -83 -245 -29 -14 5 -16 -1 -13 -33 3 -35 6 -39 43
-50 66 -20 172 -17 221 6 69 34 92 105 54 168 -22 36 -61 56 -142 73 -69 14
-98 33 -98 64 0 42 39 59 123 52 39 -3 82 -9 95 -13 22 -6 23 -4 20 27 -2 29
-8 36 -38 46 -41 14 -142 15 -187 2z"/>
<path d="M4180 6745 c0 -3 33 -50 74 -104 l74 -97 -79 -105 c-43 -57 -79 -107
-79 -111 0 -5 18 -8 40 -8 37 0 42 4 100 81 l62 80 60 -80 c59 -80 61 -81 104
-81 l45 0 -57 78 c-32 42 -68 91 -81 109 l-24 32 68 93 c94 127 91 118 41 118
-42 -1 -44 -3 -97 -75 -30 -41 -57 -72 -61 -70 -3 2 -28 35 -56 74 -48 69 -50
71 -91 71 -24 0 -43 -2 -43 -5z"/>
<path d="M7908 6657 c-138 -161 -199 -297 -232 -519 -43 -288 9 -580 138 -783
20 -30 36 -57 36 -60 0 -8 -138 -75 -219 -106 -107 -41 -298 -86 -419 -99 -70
-8 -966 -12 -2823 -14 -1551 -2 -2724 -7 -2729 -12 -24 -25 -35 -530 -14 -606
7 -24 -28 -23 -135 2 -162 39 -293 104 -389 194 l-47 44 0 -57 c0 -48 -5 -64
-29 -95 -60 -80 -165 -130 -396 -191 l-125 -33 569 -4 569 -3 22 -110 c83
-409 293 -793 603 -1101 424 -422 1001 -670 1687 -725 169 -13 650 -7 835 11
1387 135 2475 746 3148 1767 l107 162 765 3 764 3 -125 32 c-241 61 -361 123
-407 213 -17 34 -22 56 -19 89 l5 43 -47 -45 c-162 -155 -386 -227 -713 -227
l-156 0 83 163 c45 89 102 207 125 263 l44 101 165 6 c298 11 523 78 716 215
85 60 173 147 229 227 39 54 136 225 136 238 0 6 -157 95 -205 116 -218 96
-531 121 -777 62 l-76 -18 -12 64 c-24 141 -109 323 -215 465 -67 89 -232 254
-331 330 l-61 47 -45 -52z m-3853 -2746 c70 -32 125 -113 125 -187 0 -33 -20
-86 -47 -122 -74 -99 -251 -95 -320 9 -112 169 60 383 242 300z m-444 -563
c17 -43 117 -218 137 -240 14 -17 13 -18 -19 -18 -50 0 -221 26 -329 49 -121
26 -266 73 -354 114 l-70 33 195 22 c107 12 237 33 289 46 130 33 135 32 151
-6z"/>
<path d="M3821 3807 c-9 -11 -6 -24 11 -58 13 -24 26 -46 31 -47 4 -2 5 -8 2
-13 -3 -4 15 -18 40 -30 31 -15 50 -32 59 -53 l14 -31 10 25 c14 34 46 62 75
64 18 1 24 6 22 19 -2 10 2 17 11 17 8 0 13 4 10 8 -3 5 5 26 18 48 19 33 20
42 9 52 -11 11 -18 10 -35 -3 -29 -19 -44 -20 -28 0 19 23 6 18 -24 -10 -22
-20 -31 -23 -47 -15 -13 8 -25 7 -40 -1 -18 -9 -26 -7 -50 17 -23 22 -29 24
-29 11 0 -21 -8 -21 -30 -2 -15 13 -19 13 -29 2z m156 -149 c-2 -13 -4 -5 -4
17 -1 22 1 32 4 23 2 -10 2 -28 0 -40z"/>
<path d="M1020 6537 c0 -9 -35 -55 -79 -102 -139 -150 -203 -311 -204 -520 -1
-106 2 -129 25 -193 38 -105 82 -174 170 -266 79 -82 85 -94 90 -181 2 -28 8
-41 19 -43 14 -3 17 9 21 71 l3 75 70 69 c80 79 136 168 168 268 18 57 22 93
21 190 0 109 -3 129 -33 215 -37 109 -96 209 -174 295 -30 33 -64 78 -75 100
-12 23 -21 33 -22 22z"/>
<path d="M6706 6154 c-68 -21 -145 -100 -176 -179 -20 -50 -24 -78 -24 -165 0
-92 3 -113 28 -175 16 -38 32 -90 35 -114 11 -83 92 -107 131 -38 13 24 13 30
0 54 -8 14 -23 30 -32 35 -10 4 -26 12 -35 16 -30 14 -65 136 -64 227 0 176
84 285 217 285 81 0 141 -56 171 -160 16 -58 26 -70 57 -70 17 0 18 5 12 46
-23 174 -172 285 -320 238z"/>
<path d="M4306 6025 c-8 -22 1 -35 25 -35 11 0 29 -5 40 -10 18 -10 19 -24 19
-243 0 -241 -3 -257 -42 -257 -24 0 -44 -38 -24 -46 9 -3 91 -4 183 -2 141 4
176 8 221 25 77 31 136 84 169 151 23 48 28 70 28 137 0 130 -54 218 -165 269
-40 18 -68 21 -246 24 -181 3 -202 2 -208 -13z m398 -69 c83 -49 122 -135 113
-251 -8 -110 -49 -176 -129 -210 -67 -27 -167 -14 -188 25 -12 22 -14 453 -2
464 4 5 41 6 83 4 60 -4 86 -10 123 -32z"/>
<path d="M4996 6023 c-8 -19 9 -33 40 -33 42 0 44 -14 44 -241 0 -120 -4 -229
-10 -243 -6 -18 -17 -26 -33 -26 -25 0 -47 -17 -47 -37 0 -17 264 -18 339 -2
114 24 190 110 178 202 -7 52 -33 86 -87 113 -41 21 -42 22 -21 33 34 19 61
71 61 119 0 36 -6 50 -33 77 -46 46 -89 55 -268 55 -137 0 -158 -2 -163 -17z
m298 -47 c18 -8 41 -24 50 -37 18 -26 21 -90 6 -119 -13 -24 -62 -40 -121 -40
l-49 0 0 105 0 105 40 0 c22 0 56 -6 74 -14z m44 -263 c79 -37 85 -167 10
-213 -42 -25 -118 -27 -147 -2 -18 15 -22 31 -26 122 -3 76 -1 106 8 112 17
11 115 -1 155 -19z"/>
<path d="M6682 5873 c-32 -27 -37 -64 -12 -96 26 -33 66 -36 103 -7 30 24 63
25 142 5 176 -46 311 -191 292 -312 -9 -50 -49 -107 -90 -126 -39 -19 -141
-23 -182 -7 -21 8 -32 6 -56 -12 l-30 -22 23 -12 c42 -22 135 -34 188 -24 140
26 220 122 207 247 -19 181 -228 343 -442 343 -25 0 -45 4 -45 8 0 10 -45 32
-64 32 -8 0 -23 -8 -34 -17z"/>
<path d="M2460 5831 c-69 -21 -130 -72 -149 -124 -20 -51 -13 -129 15 -185 21
-43 34 -56 80 -78 45 -22 63 -26 104 -21 125 15 200 99 200 222 -1 128 -129
223 -250 186z m86 -60 c75 -46 99 -217 39 -277 -37 -37 -98 -33 -140 9 -52 52
-71 159 -41 231 24 58 83 73 142 37z"/>
<path d="M2928 5834 c-3 -2 -34 -11 -69 -18 -73 -15 -85 -33 -36 -56 l32 -15
3 -110 c3 -133 0 -151 -33 -159 -16 -4 -25 -13 -25 -26 0 -19 7 -20 105 -20
94 0 105 2 105 18 0 10 -12 22 -30 29 l-30 11 0 126 0 125 30 16 c43 22 87 19
115 -10 24 -23 25 -30 25 -143 0 -119 0 -120 -25 -126 -16 -4 -25 -13 -25 -27
0 -19 5 -20 102 -17 85 2 103 6 106 19 2 11 -8 19 -30 25 l-33 10 -5 129 c-6
146 -19 183 -72 211 -41 21 -98 13 -149 -20 l-39 -26 0 24 c0 24 -12 41 -22
30z"/>
<path d="M3485 5826 c-88 -27 -125 -72 -125 -148 0 -54 17 -87 58 -114 l32
-22 -35 -22 c-19 -12 -35 -28 -35 -36 0 -17 35 -54 53 -54 6 0 3 -7 -8 -16
-11 -8 -35 -29 -54 -46 -29 -27 -32 -36 -27 -66 16 -101 169 -144 290 -81 54
28 74 47 97 91 27 53 24 92 -9 129 -25 28 -36 32 -112 41 -123 14 -132 17
-128 35 2 10 23 21 56 29 98 25 144 74 145 155 1 44 3 49 23 49 13 0 30 10 38
22 27 39 21 48 -31 42 -29 -4 -72 1 -108 10 -69 19 -68 19 -120 2z m85 -54
c27 -22 38 -98 20 -142 -22 -54 -96 -53 -131 3 -25 40 -22 123 7 144 25 19 78
16 104 -5z m60 -380 c29 -14 36 -23 38 -54 4 -45 -20 -72 -77 -88 -117 -31
-220 66 -145 135 23 21 37 25 88 25 38 0 74 -7 96 -18z"/>
<path d="M3963 5826 c-93 -30 -143 -97 -143 -195 0 -137 92 -224 216 -207 179
24 259 234 135 357 -55 55 -125 70 -208 45z m97 -51 c58 -30 91 -138 70 -225
-14 -58 -39 -80 -91 -80 -74 0 -128 78 -129 183 0 115 63 167 150 122z"/>
<path d="M1565 5811 c-32 -9 -59 -20 -58 -25 1 -4 17 -15 35 -25 31 -15 33
-19 36 -76 2 -33 1 -93 -3 -133 -7 -70 -8 -73 -36 -79 -20 -4 -29 -12 -29 -24
0 -17 9 -19 106 -19 94 0 105 2 102 17 -2 9 -14 20 -28 23 -25 6 -25 6 -28
137 l-3 130 35 17 c108 51 163 -32 140 -211 -8 -60 -12 -68 -34 -73 -14 -3
-26 -14 -28 -23 -3 -15 8 -17 103 -17 95 0 106 2 103 17 -2 9 -14 20 -28 23
-25 6 -25 7 -30 134 -5 124 -4 129 16 143 12 8 38 17 57 20 31 5 41 1 67 -25
30 -30 30 -31 30 -145 l0 -115 -30 -11 c-16 -5 -30 -17 -30 -25 0 -14 17 -16
106 -16 95 0 105 2 102 17 -2 10 -12 19 -23 21 -41 8 -45 20 -45 143 0 65 -4
129 -10 144 -30 79 -113 98 -205 46 l-52 -30 -29 30 c-37 38 -99 40 -163 4
-23 -14 -45 -25 -47 -25 -2 0 -4 11 -4 25 0 29 -9 30 -95 6z"/>
<path d="M6392 5685 c-156 -170 -80 -403 137 -422 154 -14 336 80 416 216 17
28 35 51 42 51 6 0 21 12 33 27 52 67 -41 152 -101 92 -18 -18 -20 -30 -16
-67 4 -40 1 -52 -24 -88 -38 -51 -109 -106 -185 -141 -74 -34 -178 -38 -237
-9 -51 25 -87 88 -87 152 0 53 42 140 80 167 16 11 19 21 14 45 -4 18 -10 32
-14 32 -5 0 -30 -25 -58 -55z"/>
<path d="M4020 1669 l0 -122 -25 27 c-32 34 -64 46 -128 46 -60 0 -102 -22
-139 -72 -37 -48 -48 -91 -48 -177 1 -150 72 -241 190 -241 57 0 81 10 123 48
l27 26 0 -32 c0 -31 2 -32 40 -32 l40 0 0 325 0 325 -40 0 -40 0 0 -121z m-75
-131 c93 -42 91 -285 -2 -327 -13 -6 -42 -11 -64 -11 -70 0 -119 71 -119 175
0 104 49 175 119 175 22 0 52 -5 66 -12z"/>
<path d="M3377 1744 c-4 -4 -7 -36 -7 -71 0 -61 -1 -63 -25 -63 -21 0 -25 -5
-25 -30 0 -25 4 -30 25 -30 l25 0 1 -137 c1 -232 21 -265 160 -272 l79 -3 0
36 0 36 -59 0 c-90 0 -91 2 -91 186 l0 154 75 0 75 0 0 30 0 30 -75 0 -74 0
-3 68 -3 67 -35 3 c-20 2 -39 0 -43 -4z"/>
<path d="M4341 1598 c-84 -41 -127 -132 -118 -251 12 -174 160 -257 359 -201
l58 17 0 39 c0 34 -3 39 -17 33 -96 -41 -186 -47 -242 -17 -39 21 -71 73 -71
114 l0 28 175 0 175 0 0 28 c-1 91 -47 180 -110 212 -55 28 -150 27 -209 -2z
m189 -75 c20 -18 33 -41 37 -65 l6 -38 -132 0 c-121 0 -131 1 -131 19 0 26 41
83 70 98 14 7 46 13 72 13 38 0 54 -6 78 -27z"/>
<path d="M5535 1607 c-36 -11 -40 -16 -43 -50 -2 -20 -1 -37 1 -37 3 0 24 7
47 15 23 8 71 15 106 15 56 0 67 -3 93 -27 16 -16 32 -40 35 -54 l6 -26 -104
-5 c-79 -4 -111 -9 -137 -24 -128 -75 -94 -268 50 -282 72 -7 117 5 156 40
l35 30 0 -31 c0 -30 2 -31 40 -31 l40 0 0 153 c-1 206 -12 248 -84 301 -22 17
-44 21 -114 23 -48 1 -105 -3 -127 -10z m240 -269 c-16 -93 -60 -138 -135
-138 -68 0 -95 24 -95 84 0 28 6 51 16 61 18 19 84 32 162 34 l59 1 -7 -42z"/>
<path d="M6155 1609 c-11 -7 -30 -21 -42 -32 l-23 -20 0 26 c0 25 -3 27 -40
27 l-40 0 0 -325 0 -325 40 0 40 0 0 119 0 119 31 -29 c53 -50 161 -53 223 -6
57 44 81 107 81 212 0 74 -4 98 -24 138 -35 72 -79 101 -160 105 -38 1 -75 -2
-86 -9z m118 -70 c43 -20 69 -81 69 -163 0 -116 -44 -176 -129 -176 -54 0 -95
35 -112 96 -36 129 17 254 108 254 22 0 51 -5 64 -11z"/>
<path d="M6695 1605 c-16 -9 -38 -25 -47 -36 -18 -21 -18 -21 -18 10 0 30 -2
31 -40 31 l-40 0 0 -325 0 -325 40 0 40 0 0 121 0 122 25 -27 c31 -33 64 -46
120 -46 117 0 184 77 193 220 7 118 -25 198 -97 247 -41 28 -129 31 -176 8z
m145 -85 c52 -56 63 -174 24 -256 -41 -85 -167 -85 -208 0 -39 82 -28 200 24
256 24 26 35 30 80 30 45 0 56 -4 80 -30z"/>
<path d="M4810 1378 l87 -233 55 -3 54 -3 84 223 c45 123 85 229 87 236 4 8
-8 12 -38 12 l-44 0 -70 -189 c-38 -104 -72 -188 -74 -186 -2 2 -34 86 -71
187 l-68 183 -45 3 -44 3 87 -233z"/>
<path d="M5230 1195 l0 -55 45 0 45 0 0 55 0 55 -45 0 -45 0 0 -55z"/>
</g>
</svg>
