<?xml version="1.0" standalone="no"?>
<!DOCTYPE svg PUBLIC "-//W3C//DTD SVG 20010904//EN"
 "http://www.w3.org/TR/2001/REC-SVG-20010904/DTD/svg10.dtd">
<svg version="1.0" xmlns="http://www.w3.org/2000/svg"
 width="1000.000000pt" height="1000.000000pt" viewBox="0 0 1000.000000 1000.000000"
 preserveAspectRatio="xMidYMid meet">
<metadata>
Created by potrace 1.11, written by Peter Selinger 2001-2013
</metadata>
<g transform="translate(0.000000,1000.000000) scale(0.100000,-0.100000)"
fill="#000000" stroke="none">
<path d="M4738 9995 c-1 -1 -50 -5 -108 -9 -58 -4 -118 -9 -135 -11 -16 -3
-53 -7 -80 -9 -28 -3 -62 -7 -75 -10 -14 -3 -43 -8 -65 -10 -132 -14 -489 -91
-660 -142 -33 -10 -62 -19 -65 -19 -158 -39 -544 -193 -785 -313 -586 -293
-1144 -727 -1550 -1206 -27 -32 -55 -64 -60 -70 -58 -61 -327 -430 -381 -522
-137 -231 -176 -302 -242 -434 -121 -244 -184 -393 -265 -630 -72 -211 -154
-519 -172 -646 -3 -21 -8 -45 -11 -52 -6 -19 -42 -254 -49 -327 -4 -33 -8 -71
-11 -85 -25 -156 -25 -844 0 -1000 2 -14 7 -52 11 -85 9 -87 30 -225 50 -330
40 -214 103 -458 172 -665 28 -86 90 -255 103 -285 5 -11 37 -83 70 -160 72
-165 183 -381 270 -526 56 -93 201 -318 222 -344 4 -5 47 -62 95 -125 329
-437 730 -816 1183 -1121 69 -46 134 -89 145 -96 538 -331 1111 -556 1705
-672 104 -20 124 -23 210 -36 77 -11 93 -13 150 -20 30 -4 69 -8 85 -10 212
-26 852 -26 1005 -1 14 3 52 7 85 11 33 3 69 8 80 10 11 2 40 7 65 10 25 3 56
7 70 9 14 3 43 7 64 11 22 3 111 21 198 40 608 133 1157 364 1689 710 74 48
136 90 139 94 3 4 34 27 70 53 57 40 99 72 229 176 18 15 38 32 45 37 6 6 56
51 111 100 370 332 708 745 965 1180 126 212 293 566 383 810 26 69 85 246 92
275 2 8 17 62 33 120 86 306 147 657 169 966 15 214 9 695 -12 874 -3 19 -7
57 -10 84 -3 28 -8 59 -10 70 -2 12 -7 44 -10 71 -32 284 -192 874 -310 1140
-7 17 -30 71 -51 120 -148 350 -432 826 -657 1101 -163 198 -252 298 -393 439
-556 555 -1223 966 -1964 1211 -178 59 -440 130 -554 150 -17 3 -62 11 -101
19 -38 8 -90 17 -115 21 -25 3 -54 8 -65 10 -11 1 -40 5 -65 9 -25 3 -58 8
-75 10 -16 3 -66 7 -110 11 -44 3 -91 8 -105 11 -27 5 -636 13 -642 8z"/>
</g>
</svg>
