<?xml version="1.0" standalone="no"?>
<!DOCTYPE svg PUBLIC "-//W3C//DTD SVG 20010904//EN"
 "http://www.w3.org/TR/2001/REC-SVG-20010904/DTD/svg10.dtd">
<svg version="1.0" xmlns="http://www.w3.org/2000/svg"
 width="512.000000pt" height="512.000000pt" viewBox="0 0 512.000000 512.000000"
 preserveAspectRatio="xMidYMid meet">
<metadata>
Created by potrace 1.11, written by Peter Selinger 2001-2013
</metadata>
<g transform="translate(0.000000,512.000000) scale(0.100000,-0.100000)"
fill="#000000" stroke="none">
<path d="M3274 4763 c0 -10 -5 -17 -11 -15 -64 12 105 -190 232 -278 55 -38
148 -146 176 -203 23 -46 23 -47 3 -61 -10 -8 -31 -18 -46 -21 -39 -9 -78 -43
-94 -81 -8 -19 -14 -37 -14 -42 0 -4 37 -8 83 -8 65 -1 96 -6 150 -27 37 -15
85 -27 106 -27 33 0 44 -7 87 -54 27 -30 67 -77 89 -106 35 -46 129 -120 152
-120 16 0 129 -82 178 -129 47 -46 95 -79 95 -66 0 4 -23 33 -52 66 -28 32
-49 62 -45 65 10 10 32 -9 105 -93 40 -45 78 -85 85 -89 14 -9 -4 17 -41 57
-13 15 -25 39 -26 53 -2 15 -11 35 -20 45 -9 9 -16 24 -16 32 0 15 -66 89
-108 121 -25 20 -29 38 -7 38 22 0 19 13 -15 55 -39 49 -39 68 -2 59 15 -4 43
-15 62 -25 40 -20 251 -122 263 -128 5 -2 3 6 -5 18 -11 18 -11 23 1 30 10 7
11 13 2 30 -7 11 -16 21 -21 21 -5 0 -17 16 -26 35 -9 19 -22 35 -30 35 -7 0
-26 11 -41 25 -21 19 -25 27 -15 33 10 7 3 19 -28 49 -43 44 -48 53 -26 53 9
0 12 7 9 18 -4 17 -20 20 -161 26 -141 5 -158 8 -171 26 -22 32 -224 234 -251
251 -14 9 -48 24 -77 33 -28 10 -64 27 -78 38 -15 12 -43 27 -64 34 -27 9 -36
18 -36 36 0 15 -11 30 -32 43 -18 11 -32 25 -33 31 0 17 -102 64 -126 58 -24
-6 -119 39 -128 61 -8 21 -34 19 -32 -2z"/>
<path d="M2210 3823 c-19 -10 -41 -31 -49 -47 -25 -54 -53 -538 -41 -707 10
-132 17 -153 60 -202 79 -90 227 -43 359 113 30 36 58 66 61 68 4 1 10 -21 13
-50 8 -76 37 -157 60 -170 49 -26 166 17 159 58 -11 64 -16 234 -7 234 6 0 25
-24 42 -54 18 -29 51 -70 74 -91 59 -53 95 -46 165 29 28 31 53 56 56 56 3 0
8 -31 11 -69 6 -73 22 -114 56 -145 25 -23 76 -16 132 20 41 26 40 23 64 179
57 385 84 496 140 569 39 51 95 64 115 27 13 -25 13 -213 -1 -271 -6 -25 -11
-112 -12 -195 -1 -141 0 -153 23 -200 14 -27 37 -56 51 -64 24 -14 31 -12 85
15 44 22 59 34 57 49 -1 11 -7 63 -13 115 -8 64 -10 167 -6 318 7 246 1 279
-53 306 -107 54 -224 -6 -299 -154 -38 -73 -91 -235 -104 -313 -6 -40 -18 -79
-26 -87 -12 -13 -13 3 -9 120 3 74 11 197 17 273 15 196 -1 241 -98 267 -48
12 -103 5 -97 -13 2 -7 -6 -168 -18 -359 l-22 -347 -38 -51 c-21 -28 -53 -58
-72 -67 -30 -15 -38 -15 -61 -2 -32 17 -86 99 -110 167 l-18 50 61 60 c104
103 162 212 164 311 2 67 -7 88 -43 100 -50 18 -111 -17 -157 -91 -21 -32 -40
-56 -43 -53 -3 4 -3 43 -1 88 7 105 -9 147 -66 176 -49 25 -136 29 -128 6 4
-8 -1 -103 -9 -212 -9 -109 -19 -259 -23 -333 -7 -151 -6 -151 -91 -244 -100
-109 -167 -120 -189 -32 -11 45 -16 342 -6 368 4 11 21 13 65 10 49 -4 60 -2
60 11 0 9 -12 18 -30 21 -16 3 -44 9 -61 12 l-31 6 7 111 c10 163 -1 150 115
142 54 -4 107 -4 117 -1 26 8 41 44 49 110 l6 53 -33 6 c-19 4 -104 9 -189 12
-138 6 -159 5 -190 -12z m802 -208 c15 -34 -4 -120 -47 -205 -35 -69 -128
-180 -140 -168 -19 19 54 275 98 345 37 59 70 69 89 28z"/>
<path d="M1277 3703 c-2 -60 -12 -202 -22 -318 -15 -171 -16 -233 -8 -335 11
-141 38 -216 80 -226 50 -13 133 18 148 54 19 45 36 143 55 302 24 209 50 340
66 340 13 0 17 -16 44 -190 21 -135 33 -174 53 -167 6 2 15 28 20 58 25 179
51 290 83 357 28 57 61 86 88 76 20 -8 20 -30 0 -259 -26 -298 -11 -465 46
-495 29 -16 83 -5 132 26 31 20 37 28 29 38 -23 27 -34 190 -28 421 3 159 1
241 -7 265 -29 91 -187 92 -250 2 -36 -53 -82 -193 -96 -292 -19 -138 -30
-131 -51 30 -21 167 -36 208 -71 195 -21 -8 -41 -58 -78 -195 -18 -63 -36
-119 -41 -124 -11 -13 -11 4 2 241 8 163 8 197 -5 227 -20 49 -68 76 -133 76
l-51 0 -5 -107z"/>
<path d="M3340 2368 c0 -2 -3 -48 -6 -103 -2 -55 -9 -136 -15 -180 -5 -44 -13
-153 -16 -242 l-6 -162 -36 -48 c-45 -60 -114 -121 -148 -129 -35 -9 -54 4
-81 57 -23 42 -23 50 -19 219 6 214 34 335 86 382 37 33 45 34 71 8 16 -16 20
-33 20 -89 0 -47 4 -72 14 -80 12 -10 15 -2 21 53 12 108 3 211 -21 243 -61
82 -192 48 -272 -71 -111 -163 -151 -620 -68 -769 28 -51 78 -87 119 -87 56 0
135 50 218 139 44 46 79 88 79 92 0 5 4 9 9 9 4 0 11 -30 15 -67 9 -82 46
-158 84 -168 38 -9 138 43 134 70 -10 56 -13 315 -4 315 5 0 12 -13 15 -29 12
-61 71 -182 107 -221 31 -33 43 -40 76 -40 34 0 45 7 94 59 56 60 137 196 122
205 -5 3 -22 -16 -38 -42 -42 -68 -146 -172 -172 -172 -40 0 -78 124 -84 282
-4 83 8 101 118 180 118 85 129 130 49 208 l-33 32 -88 -68 c-49 -38 -102 -83
-118 -101 -16 -18 -33 -33 -38 -33 -4 0 -5 57 -2 128 6 122 5 128 -18 162 -15
23 -37 39 -63 46 -35 11 -105 18 -105 12z"/>
<path d="M1503 2340 c-70 -43 -180 -181 -209 -264 -18 -51 -18 -128 2 -174 19
-47 49 -78 150 -157 94 -74 144 -128 144 -155 0 -34 -40 -49 -165 -60 -108
-10 -123 -14 -147 -38 -24 -22 -28 -34 -28 -78 0 -83 -4 -80 121 -72 208 13
273 39 305 124 16 42 16 47 -1 91 -12 32 -46 77 -105 138 -145 151 -167 216
-109 324 35 66 134 170 148 156 5 -6 5 -51 -1 -113 -6 -56 -8 -105 -5 -108 3
-4 13 -4 22 -1 10 4 15 20 15 49 1 24 9 90 19 147 21 119 16 158 -26 191 -33
26 -88 26 -130 0z"/>
<path d="M1796 2346 c-56 -21 -71 -40 -70 -89 1 -53 47 -132 71 -122 42 16
108 25 140 19 l35 -7 -6 -56 c-3 -31 -11 -141 -17 -246 -14 -255 -1 -395 42
-456 17 -24 28 -29 62 -29 24 0 56 8 74 20 39 23 46 15 34 -40 -9 -41 -9 -42
16 -35 40 10 91 54 102 88 6 18 17 91 25 162 8 72 18 154 22 184 l7 53 101 -7
c56 -4 104 -9 108 -11 3 -2 4 -30 1 -62 -7 -72 11 -216 32 -269 25 -63 58 -72
132 -36 66 32 62 14 43 188 -8 73 -10 196 -6 368 5 218 3 265 -10 295 -21 51
-41 71 -87 83 -69 18 -112 4 -178 -61 -32 -32 -59 -65 -59 -73 0 -8 -8 -25
-18 -38 -18 -23 -102 -228 -102 -248 0 -6 -7 -31 -16 -57 -18 -54 -60 -228
-80 -333 -14 -76 -19 -89 -31 -78 -9 10 -8 306 1 508 l8 167 79 4 c71 3 82 6
104 30 32 35 45 69 45 121 l0 42 -52 0 c-29 0 -91 6 -138 13 -144 21 -369 25
-414 8z m758 -108 c20 -28 21 -167 4 -316 l-12 -103 -85 6 c-124 11 -121 7
-104 107 41 237 139 389 197 306z"/>
<path d="M2047 904 c-4 -4 -7 -25 -7 -46 0 -43 1 -42 -35 -28 -36 14 -92 -11
-105 -45 -19 -50 -12 -94 19 -126 31 -30 77 -39 98 -18 8 8 17 8 31 0 36 -19
43 6 40 140 -3 102 -6 124 -18 127 -9 1 -19 0 -23 -4z m-29 -120 c42 -29 19
-114 -31 -114 -54 0 -79 83 -35 114 12 9 27 16 33 16 6 0 21 -7 33 -16z"/>
<path d="M1760 855 c-5 -14 -16 -25 -25 -25 -22 0 -18 -37 4 -43 14 -3 18 -11
14 -26 -3 -11 -2 -41 1 -66 8 -49 32 -71 66 -60 26 8 26 35 0 35 -18 0 -20 7
-20 58 0 50 3 59 23 67 12 6 22 15 22 20 0 6 -10 11 -22 13 -14 2 -23 10 -23
22 0 29 -29 33 -40 5z"/>
<path d="M2193 825 c-40 -17 -53 -42 -53 -98 0 -38 5 -49 31 -71 33 -28 73
-33 114 -14 27 12 31 46 4 39 -47 -13 -71 -12 -89 4 -11 10 -20 22 -20 27 0 4
32 8 70 8 77 0 88 8 71 53 -19 48 -79 73 -128 52z m71 -41 c23 -22 11 -34 -34
-34 -45 0 -61 17 -35 37 25 17 50 17 69 -3z"/>
<path d="M2754 830 c-34 -13 -54 -50 -54 -98 0 -35 6 -49 29 -73 31 -30 77
-39 98 -18 8 8 17 8 31 0 10 -6 22 -7 26 -4 11 11 7 191 -4 198 -6 4 -17 2
-24 -4 -10 -8 -22 -8 -40 -1 -32 12 -34 12 -62 0z m76 -50 c38 -38 15 -110
-36 -110 -53 0 -76 83 -32 114 30 21 44 20 68 -4z"/>
<path d="M3047 833 c-4 -4 -26 -7 -50 -7 l-42 -1 -3 -110 c-3 -122 2 -155 22
-155 17 0 26 22 26 61 0 26 2 29 19 19 35 -18 71 -11 102 19 39 39 41 105 4
145 -13 14 -28 26 -34 26 -5 0 -16 2 -23 5 -8 3 -17 2 -21 -2z m43 -53 c53
-53 -13 -143 -73 -97 -27 21 -31 60 -7 90 25 32 53 34 80 7z"/>
<path d="M3296 833 c-3 -4 -25 -7 -49 -7 l-42 -1 -3 -132 c-2 -127 -2 -133 17
-133 16 0 20 8 23 43 2 31 7 41 18 38 72 -19 113 -1 131 59 16 54 -2 103 -45
124 -39 18 -40 18 -50 9z m44 -53 c11 -11 20 -31 20 -45 0 -30 -32 -65 -60
-65 -27 0 -60 35 -60 63 0 29 34 67 60 67 11 0 29 -9 40 -20z"/>
<path d="M2370 813 c0 -14 44 -118 68 -162 19 -33 34 -19 72 64 44 96 49 118
23 113 -11 -2 -27 -25 -40 -58 -12 -30 -25 -56 -30 -57 -4 -1 -20 25 -35 57
-26 57 -58 81 -58 43z"/>
<path d="M2602 658 c2 -13 10 -23 18 -23 8 0 16 10 18 23 3 17 -2 22 -18 22
-16 0 -21 -5 -18 -22z"/>
</g>
</svg>
